<?xml version="1.0"?>
<svg version="1.1" xmlns="http://www.w3.org/2000/svg" width="60" height="50" style="border: dashed 2px #aaa"><path fill="#" d="M15.32763671875,29.4794921875q0-0.18798828125,0.12890625-0.239013671875t0.279296875-0.051025390625q0.26318359375,0,0.44580078125,0.236328125t0.346435546875,0.518310546875t0.324951171875,0.518310546875t0.38134765625,0.236328125q0.16650390625,0,0.303466796875-0.083251953125t0.236328125-0.20947265625t0.153076171875-0.28466796875t0.0537109375-0.314208984375q0-0.408203125-0.163818359375-0.84326171875t-0.4189453125-0.89697265625t-0.539794921875-0.9453125t-0.537109375-0.98291015625t-0.4189453125-1.017822265625t-0.16650390625-1.044677734375q0-0.78955078125,0.47265625-1.224609375t1.24609375-0.43505859375q0.26318359375,0,0.53173828125,0.0751953125t0.494140625,0.2255859375t0.367919921875,0.37060546875t0.142333984375,0.515625q0,0.0966796875-0.142333984375,0.126220703125t-0.206787109375,0.029541015625q-0.0966796875,0-0.20947265625-0.024169921875t-0.14501953125-0.131591796875t-0.09130859375-0.2470703125t-0.147705078125-0.260498046875t-0.20947265625-0.20947265625t-0.265869140625-0.088623046875q-0.24169921875,0-0.410888671875,0.099365234375t-0.27392578125,0.265869140625t-0.15576171875,0.373291015625t-0.051025390625,0.427001953125q0,0.515625,0.17724609375,1.039306640625t0.4404296875,1.0419921875t0.572021484375,1.023193359375t0.572021484375,0.98291015625t0.4404296875,0.9345703125t0.17724609375,0.86474609375q0,0.365234375-0.171875,0.61767578125t-0.43505859375,0.410888671875t-0.582763671875,0.23095703125t-0.625732421875,0.072509765625q-0.32763671875,0-0.67138671875-0.131591796875t-0.61767578125-0.362548828125t-0.451171875-0.539794921875t-0.17724609375-0.668701171875z M20.159848632813,26.55224609375q0-0.25244140625,0.099365234375-0.373291015625t0.362548828125-0.120849609375q0.15576171875,0,0.292724609375,0.064453125t0.136962890625,0.27392578125q0.021484375,0.30615234375,0.021484375,0.641845703125t0.05908203125,0.636474609375q0.13427734375-0.22021484375,0.303466796875-0.4404296875t0.373291015625-0.39208984375t0.44580078125-0.276611328125t0.5263671875-0.104736328125q0.38671875,0,0.6552734375,0.1611328125t0.443115234375,0.4189453125t0.25244140625,0.582763671875t0.077880859375,0.652587890625q0,0.5048828125-0.153076171875,0.824462890625t-0.405517578125,0.502197265625t-0.572021484375,0.2470703125t-0.641845703125,0.064453125q-0.28466796875,0-0.53173828125-0.110107421875t-0.34375-0.416259765625q0-0.0859375,0.126220703125-0.107421875t0.179931640625-0.021484375q0.17724609375,0,0.26318359375,0.0966796875q0.064453125,0.0751953125,0.142333984375,0.153076171875t0.163818359375,0.077880859375q0.16650390625,0,0.34912109375-0.093994140625t0.335693359375-0.2470703125t0.2578125-0.362548828125t0.104736328125-0.4296875q0-0.18798828125-0.0322265625-0.46728515625t-0.110107421875-0.537109375t-0.21484375-0.44580078125t-0.346435546875-0.18798828125q-0.31689453125,0-0.572021484375,0.2900390625t-0.42431640625,0.6982421875t-0.26318359375,0.8486328125t-0.093994140625,0.73583984375t0.03759765625,0.74658203125t0.077880859375,0.937255859375t0.077880859375,0.937255859375t0.03759765625,0.74658203125q0,0.0751953125-0.061767578125,0.120849609375t-0.147705078125,0.072509765625t-0.174560546875,0.0322265625t-0.131591796875,0.00537109375q-0.14501953125,0-0.303466796875-0.0322265625t-0.217529296875-0.19873046875q-0.0751953125-0.26318359375-0.1396484375-0.749267578125t-0.115478515625-1.07421875t-0.088623046875-1.2353515625t-0.064453125-1.248779296875t-0.040283203125-1.10107421875t-0.013427734375-0.794921875z M25.308955078125,30.4033203125q0-0.15576171875,0.013427734375-0.32763671875t0.024169921875-0.322265625l0.0322265625-0.8056640625q0.0537109375-0.966796875,0.131591796875-1.9013671875t0.131591796875-1.890625q0.0322265625-0.5263671875,0.04833984375-1.033935546875t0.04833984375-1.033935546875q-0.021484375-0.04296875-0.021484375-0.05908203125q0-0.0751953125,0.056396484375-0.1181640625t0.131591796875-0.072509765625t0.158447265625-0.040283203125t0.126220703125-0.0107421875l0.12353515625,0q0.16650390625,0.021484375,0.24169921875,0.104736328125t0.0966796875,0.19873046875t0.0107421875,0.2470703125t-0.0107421875,0.244384765625q0,0.77880859375-0.03759765625,1.587158203125t-0.0859375,1.6220703125t-0.088623046875,1.62744140625t-0.040283203125,1.608642578125l0,0.3759765625q0,0.25244140625-0.142333984375,0.3330078125t-0.394775390625,0.08056640625q-0.22021484375,0-0.38671875-0.0966796875t-0.16650390625-0.31689453125z M27.772514648438,28.36767578125q0-0.494140625,0.115478515625-0.969482421875t0.196044921875-0.947998046875q0.021484375-0.12353515625,0.169189453125-0.153076171875t0.249755859375-0.029541015625q0.17724609375,0,0.28466796875,0.0537109375q0.04296875,0.021484375,0.08056640625,0.04833984375t0.03759765625,0.06982421875q0,0.4619140625-0.110107421875,0.90234375t-0.110107421875,0.9345703125q0,0.16650390625,0.024169921875,0.314208984375t0.045654296875,0.292724609375l0.0322265625,0.15576171875q0,0.04296875,0.00537109375,0.0751953125t0.01611328125,0.0751953125q0,0.0966796875-0.136962890625,0.131591796875t-0.239013671875,0.034912109375q-0.15576171875,0-0.287353515625-0.061767578125t-0.206787109375-0.212158203125l-0.0751953125-0.15576171875q-0.064453125-0.12353515625-0.064453125-0.276611328125t-0.02685546875-0.281982421875z M28.116264648438,25.13427734375l0-0.10205078125q0-0.25244140625,0.126220703125-0.451171875t0.378662109375-0.19873046875q0.0322265625,0,0.061767578125,0.00537109375t0.061767578125,0.00537109375q0.064453125,0.0107421875,0.169189453125,0.051025390625t0.104736328125,0.126220703125l0,0.0107421875q-0.021484375,0.04296875-0.02685546875,0.088623046875t-0.02685546875,0.077880859375l0.0107421875-0.0107421875q-0.064453125,0.16650390625-0.104736328125,0.2685546875t-0.088623046875,0.163818359375t-0.120849609375,0.088623046875t-0.206787109375,0.02685546875q-0.021484375,0-0.0751953125-0.00537109375t-0.115478515625-0.021484375t-0.104736328125-0.04296875t-0.04296875-0.08056640625z M29.8976953125,25.0859375q0-0.0751953125,0.1611328125-0.12890625t0.365234375-0.088623046875t0.394775390625-0.051025390625t0.260498046875-0.02685546875q0-0.14501953125,0.0107421875-0.292724609375t0.05908203125-0.26318359375t0.153076171875-0.185302734375t0.292724609375-0.06982421875q0.15576171875,0,0.236328125,0.03759765625t0.171875,0.15576171875q0.021484375,0.064453125,0.021484375,0.12353515625l0,0.179931640625t-0.0107421875,0.185302734375q0.19873046875-0.021484375,0.394775390625-0.051025390625t0.394775390625-0.029541015625q0.14501953125,0,0.19873046875,0.00537109375t0.107421875,0.12890625q0.04296875,0.12353515625-0.104736328125,0.18798828125t-0.3544921875,0.0966796875t-0.410888671875,0.04833984375t-0.2470703125,0.01611328125q-0.064453125,0.923828125-0.131591796875,1.83154296875t-0.067138671875,1.84228515625q0,0.4189453125,0.02685546875,0.86474609375t0.150390625,0.84326171875q0.0322265625,0.12353515625,0.107421875,0.23095703125t0.0751953125,0.23095703125q0,0.0751953125-0.05908203125,0.1181640625t-0.142333984375,0.072509765625t-0.16650390625,0.034912109375t-0.136962890625,0.00537109375q-0.33837890625,0-0.515625-0.25244140625t-0.255126953125-0.604248046875t-0.083251953125-0.722412109375t-0.00537109375-0.6015625q0-0.47265625,0.018798828125-0.966796875t0.045654296875-0.9775390625t0.0751953125-0.9453125t0.11279296875-0.859375q-0.18798828125,0.021484375-0.367919921875,0.04833984375t-0.367919921875,0.02685546875q-0.04296875,0-0.115478515625-0.00537109375t-0.136962890625-0.02685546875t-0.110107421875-0.05908203125t-0.045654296875-0.107421875z M34.015551757812,28.92626953125q0-0.19873046875,0.008056640625-0.582763671875t0.056396484375-0.781494140625t0.158447265625-0.7197265625t0.330322265625-0.41357421875q0.0537109375-0.021484375,0.174560546875-0.03759765625t0.24169921875-0.0107421875t0.21484375,0.04296875t0.093994140625,0.1396484375q0,0.021484375-0.021484375,0.05908203125t-0.11279296875,0.1181640625q-0.16650390625,0.4619140625-0.2041015625,0.91845703125t-0.03759765625,0.93994140625q0,0.28466796875,0.018798828125,0.5693359375t0.061767578125,0.57470703125q0.0859375-0.12353515625,0.174560546875-0.37060546875t0.18798828125-0.539794921875t0.2041015625-0.593505859375t0.236328125-0.5478515625t0.2900390625-0.408203125t0.357177734375-0.1611328125q0.22021484375,0,0.367919921875,0.276611328125t0.27392578125,0.63916015625t0.236328125,0.73583984375t0.265869140625,0.572021484375q0.0751953125-0.0751953125,0.120849609375-0.196044921875t0.072509765625-0.260498046875t0.0322265625-0.276611328125t0.00537109375-0.233642578125q0-0.24169921875-0.072509765625-0.523681640625t-0.153076171875-0.529052734375t-0.153076171875-0.416259765625t-0.072509765625-0.196044921875q0-0.04296875,0.045654296875-0.06982421875t0.104736328125-0.04296875t0.120849609375-0.021484375t0.093994140625-0.00537109375q0.19873046875,0,0.341064453125,0.22021484375t0.2255859375,0.51025390625t0.120849609375,0.588134765625t0.03759765625,0.464599609375q0,0.20947265625-0.0322265625,0.44580078125t-0.120849609375,0.437744140625t-0.260498046875,0.335693359375t-0.43505859375,0.13427734375q-0.31689453125,0-0.52099609375-0.17724609375t-0.330322265625-0.4296875t-0.19873046875-0.550537109375t-0.136962890625-0.539794921875q-0.12353515625,0.28466796875-0.2255859375,0.7197265625t-0.2578125,0.85400390625t-0.3974609375,0.71435546875t-0.62841796875,0.29541015625t-0.550537109375-0.190673828125t-0.260498046875-0.523681640625l0.0107421875,0.0107421875q-0.064453125-0.24169921875-0.083251953125-0.4833984375t-0.018798828125-0.4833984375z M39.562119140625,28.36767578125q0-0.494140625,0.115478515625-0.969482421875t0.196044921875-0.947998046875q0.021484375-0.12353515625,0.169189453125-0.153076171875t0.249755859375-0.029541015625q0.17724609375,0,0.28466796875,0.0537109375q0.04296875,0.021484375,0.08056640625,0.04833984375t0.03759765625,0.06982421875q0,0.4619140625-0.110107421875,0.90234375t-0.110107421875,0.9345703125q0,0.16650390625,0.024169921875,0.314208984375t0.045654296875,0.292724609375l0.0322265625,0.15576171875q0,0.04296875,0.00537109375,0.0751953125t0.01611328125,0.0751953125q0,0.0966796875-0.136962890625,0.131591796875t-0.239013671875,0.034912109375q-0.15576171875,0-0.287353515625-0.061767578125t-0.206787109375-0.212158203125l-0.0751953125-0.15576171875q-0.064453125-0.12353515625-0.064453125-0.276611328125t-0.02685546875-0.281982421875z M39.905869140625,25.13427734375l0-0.10205078125q0-0.25244140625,0.126220703125-0.451171875t0.378662109375-0.19873046875q0.0322265625,0,0.061767578125,0.00537109375t0.061767578125,0.00537109375q0.064453125,0.0107421875,0.169189453125,0.051025390625t0.104736328125,0.126220703125l0,0.0107421875q-0.021484375,0.04296875-0.02685546875,0.088623046875t-0.02685546875,0.077880859375l0.0107421875-0.0107421875q-0.064453125,0.16650390625-0.104736328125,0.2685546875t-0.088623046875,0.163818359375t-0.120849609375,0.088623046875t-0.206787109375,0.02685546875q-0.021484375,0-0.0751953125-0.00537109375t-0.115478515625-0.021484375t-0.104736328125-0.04296875t-0.04296875-0.08056640625z M41.907514648438,27.11083984375q0-0.22021484375,0.12890625-0.378662109375t0.314208984375-0.2578125t0.405517578125-0.147705078125t0.408203125-0.04833984375q0.14501953125,0,0.38671875,0.04296875t0.47265625,0.12890625t0.400146484375,0.2255859375t0.169189453125,0.32763671875q0,0.0859375-0.064453125,0.153076171875t-0.13427734375,0.067138671875q-0.14501953125,0-0.26318359375-0.093994140625t-0.244384765625-0.19873046875t-0.276611328125-0.19873046875t-0.33837890625-0.093994140625t-0.341064453125,0.120849609375t-0.153076171875,0.319580078125q0,0.32763671875,0.23095703125,0.641845703125t0.507568359375,0.66064453125t0.507568359375,0.727783203125t0.23095703125,0.84326171875q0,0.19873046875-0.083251953125,0.335693359375t-0.22021484375,0.222900390625t-0.308837890625,0.131591796875t-0.3330078125,0.045654296875q-0.17724609375,0-0.41357421875-0.083251953125t-0.44580078125-0.22021484375t-0.351806640625-0.319580078125t-0.142333984375-0.38134765625q0-0.0966796875,0.136962890625-0.12353515625t0.201416015625-0.02685546875q0.0322265625,0,0.099365234375,0.021484375t0.131591796875,0.04833984375t0.115478515625,0.05908203125t0.040283203125,0.06982421875q0.0537109375,0.064453125,0.163818359375,0.190673828125t0.22021484375,0.2041015625t0.193359375,0.056396484375t0.083251953125-0.24169921875q0-0.4189453125-0.2255859375-0.770751953125t-0.491455078125-0.6875t-0.491455078125-0.666015625t-0.2255859375-0.706298828125z M45.69236328125,28.716796875q0-0.3759765625,0.083251953125-0.88623046875t0.281982421875-0.966796875t0.523681640625-0.776123046875t0.819091796875-0.319580078125q0.4619140625,0,0.69287109375,0.265869140625t0.23095703125,0.717041015625q0,0.29541015625-0.110107421875,0.647216796875t-0.314208984375,0.666015625t-0.4833984375,0.523681640625t-0.623046875,0.20947265625l-0.1396484375-0.0107421875q0,0.14501953125,0.04296875,0.389404296875t0.126220703125,0.486083984375t0.21484375,0.42431640625t0.319580078125,0.1826171875q0.27392578125,0,0.5263671875-0.22021484375t0.47802734375-0.48876953125t0.4189453125-0.48876953125t0.3544921875-0.22021484375q0.0859375,0,0.17724609375,0.02685546875t0.10205078125,0.150390625q0,0.0751953125-0.040283203125,0.12353515625t-0.072509765625,0.107421875q-0.16650390625,0.28466796875-0.362548828125,0.54248046875t-0.443115234375,0.46728515625t-0.539794921875,0.330322265625t-0.647216796875,0.120849609375q-0.4619140625,0-0.76806640625-0.163818359375t-0.494140625-0.4404296875t-0.271240234375-0.63916015625t-0.083251953125-0.760009765625z M46.6537890625,28.30859375l0.150390625,0.13427734375q0.107421875,0.0966796875,0.21484375,0.04296875t0.193359375-0.196044921875t0.158447265625-0.351806640625t0.12890625-0.4296875t0.083251953125-0.4296875t0.02685546875-0.34912109375l0-0.1826171875t-0.01611328125-0.193359375t-0.056396484375-0.153076171875t-0.126220703125-0.077880859375q-0.02685546875-0.00537109375-0.04833984375-0.00537109375q-0.1826171875,0-0.3115234375,0.23095703125q-0.1396484375,0.2578125-0.2255859375,0.625732421875t-0.12353515625,0.754638671875t-0.04833984375,0.580078125z"/><path fill="#" d=""/></svg>
